HIERARCHY
ROOT Hips
{
	OFFSET -0.001795 -0.223333 0.028219
	CHANNELS 6 Xposition Yposition Zposition Zrotation Yrotation Xrotation 
	JOINT LeftUpLeg
	{
		OFFSET 0.069520 -0.091406 -0.006815
		CHANNELS 3 Zrotation Yrotation Xrotation
		JOINT LeftLeg
		{
			OFFSET 0.034277 -0.375199 -0.004496
			CHANNELS 3 Zrotation Yrotation Xrotation
			JOINT LeftFoot
			{
				OFFSET -0.013596 -0.397961 -0.043693
				CHANNELS 3 Zrotation Yrotation Xrotation
				JOINT LeftToe
				{
					OFFSET 0.026358 -0.055791 0.119288
					CHANNELS 3 Zrotation Yrotation Xrotation
					End Site
					{
						OFFSET 0.000000 0.000000 0.000000
					}
				}
			}
		}
	}
	JOINT RightUpLeg
	{
		OFFSET -0.067670 -0.090522 -0.004320
		CHANNELS 3 Zrotation Yrotation Xrotation
		JOINT RightLeg
		{
			OFFSET -0.038290 -0.382569 -0.008850
			CHANNELS 3 Zrotation Yrotation Xrotation
			JOINT RightFoot
			{
				OFFSET 0.015774 -0.398415 -0.042312
				CHANNELS 3 Zrotation Yrotation Xrotation
				JOINT RightToe
				{
					OFFSET -0.025372 -0.048144 0.123348
					CHANNELS 3 Zrotation Yrotation Xrotation
					End Site
					{
						OFFSET 0.000000 0.000000 0.000000
					}
				}
			}
		}
	}
	JOINT Spine
	{
		OFFSET -0.002533 0.108963 -0.026696
		CHANNELS 3 Zrotation Yrotation Xrotation
		JOINT Spine1
		{
			OFFSET 0.005487 0.135180 0.001092
			CHANNELS 3 Zrotation Yrotation Xrotation
			JOINT Spine2
			{
				OFFSET 0.001457 0.052922 0.025425
				CHANNELS 3 Zrotation Yrotation Xrotation
				JOINT Neck
				{
					OFFSET -0.002778 0.213870 -0.042857
					CHANNELS 3 Zrotation Yrotation Xrotation
					JOINT Head
					{
						OFFSET 0.005152 0.064970 0.051349
						CHANNELS 3 Zrotation Yrotation Xrotation
						End Site
						{
							OFFSET 0.000000 0.000000 0.000000
						}
					}
				}
				JOINT LeftShoulder
				{
					OFFSET 0.078845 0.121749 -0.034090
					CHANNELS 3 Zrotation Yrotation Xrotation
					JOINT LeftArm
					{
						OFFSET 0.090977 0.030469 -0.008868
						CHANNELS 3 Zrotation Yrotation Xrotation
						JOINT LeftForeArm
						{
							OFFSET 0.259612 -0.012772 -0.027456
							CHANNELS 3 Zrotation Yrotation Xrotation
							JOINT LeftHand
							{
								OFFSET 0.249234 0.008986 -0.001171
								CHANNELS 3 Zrotation Yrotation Xrotation
								End Site
								{
									OFFSET 0.000000 0.000000 0.000000
								}
							}
						}
					}
				}
				JOINT RightShoulder
				{
					OFFSET -0.081759 0.118833 -0.038615
					CHANNELS 3 Zrotation Yrotation Xrotation
					JOINT RightArm
					{
						OFFSET -0.096012 0.032551 -0.009143
						CHANNELS 3 Zrotation Yrotation Xrotation
						JOINT RightForeArm
						{
							OFFSET -0.253742 -0.013329 -0.021401
							CHANNELS 3 Zrotation Yrotation Xrotation
							JOINT RightHand
							{
								OFFSET -0.255298 0.007772 -0.005559
								CHANNELS 3 Zrotation Yrotation Xrotation
								End Site
								{
									OFFSET 0.000000 0.000000 0.000000
								}
							}
						}
					}
				}
			}
		}
	}
}
MOTION
Frames: 14
Frame Time: 0.050000
-0.154512 0.922921 -0.245028 -0.165862 -6.965815 7.550174 11.845878 0.337118 -19.500689 -7.389128 1.344567 9.693552 8.652391 17.787017 14.690254 0.000000 0.000000 0.000000 -11.067465 0.953690 -21.384770 8.164899 -0.989618 12.801467 -4.315378 -13.781637 11.201751 0.000000 0.000000 0.000000 5.569881 -2.517047 33.594696 -5.271496 1.697440 -25.321949 -5.109078 8.474893 23.845245 16.916773 -4.309215 -38.585361 0.000000 0.000000 0.000000 -12.672412 -28.064987 11.774207 -37.763039 -33.982697 4.183483 25.337900 -56.270144 -11.202039 0.000000 0.000000 0.000000 22.319320 12.798882 7.759417 52.028212 40.487333 10.995751 -5.072894 42.896131 0.877615 0.000000 0.000000 0.000000 
-0.155127 0.922876 -0.244925 -0.216993 -7.132201 7.465614 11.966066 0.372922 -19.542775 -7.427713 1.376494 10.035555 8.717857 17.867637 14.734340 0.000000 0.000000 0.000000 -10.984967 0.967986 -21.256061 8.205130 -0.988722 12.704020 -4.245108 -13.648814 11.111381 0.000000 0.000000 0.000000 5.722081 -2.545961 33.566329 -5.353235 1.714952 -25.259562 -5.047187 8.325357 23.912681 16.788908 -4.348124 -38.317656 0.000000 0.000000 0.000000 -13.122731 -27.789925 11.773109 -37.683029 -33.376306 3.978265 26.863202 -57.425825 -12.282920 0.000000 0.000000 0.000000 22.663224 12.574710 7.600488 52.218995 39.815716 10.686091 -5.422073 43.819031 0.796462 0.000000 0.000000 0.000000 
-0.155862 0.922839 -0.244723 -0.211669 -7.377675 7.527218 11.980022 0.393083 -19.624397 -7.369787 1.380700 10.199992 8.834246 18.015159 14.838439 0.000000 0.000000 0.000000 -10.944581 0.993771 -21.425099 8.208291 -0.981046 12.821646 -4.160729 -13.504133 11.032677 0.000000 0.000000 0.000000 5.679183 -2.502526 33.507829 -5.267195 1.692488 -25.202391 -5.070867 8.334972 23.778495 16.728463 -4.373660 -38.092906 0.000000 0.000000 0.000000 -13.372207 -27.633219 11.766536 -37.427587 -32.829951 3.775126 27.977568 -58.868129 -13.282723 0.000000 0.000000 0.000000 23.149669 12.345836 7.492149 52.122694 39.064991 10.257325 -5.060948 45.083911 0.998737 0.000000 0.000000 0.000000 
-0.156766 0.922678 -0.244324 -0.196489 -7.581939 7.518816 11.962375 0.398106 -19.498265 -7.266762 1.361913 10.144449 8.934238 18.142856 14.862738 0.000000 0.000000 0.000000 -10.726697 1.031489 -21.440765 7.908309 -0.915119 12.867245 -4.098450 -13.366900 10.812851 0.000000 0.000000 0.000000 5.652363 -2.467584 33.448329 -5.183830 1.673201 -25.007183 -5.053947 8.331419 23.609141 16.527489 -4.328381 -37.892080 0.000000 0.000000 0.000000 -13.635433 -27.380967 11.710340 -37.356013 -32.460481 3.661560 28.927562 -60.424528 -14.255676 0.000000 0.000000 0.000000 23.475562 12.116034 7.358645 52.302407 38.361860 9.956380 -4.722713 46.519866 1.215696 0.000000 0.000000 0.000000 
-0.157827 0.922440 -0.243786 -0.200854 -7.816859 7.348544 12.024998 0.417848 -19.230626 -7.256097 1.370415 10.188982 9.036443 18.271685 14.841772 0.000000 0.000000 0.000000 -10.618168 1.049354 -21.303714 7.873293 -0.899483 12.954734 -4.019467 -13.187056 10.566416 0.000000 0.000000 0.000000 5.625684 -2.431209 33.487077 -5.283103 1.694644 -24.889996 -5.102667 8.179042 23.642388 16.314645 -4.303413 -37.755250 0.000000 0.000000 0.000000 -13.739632 -27.252172 11.718626 -37.091449 -32.251849 3.546938 28.779771 -61.810798 -14.526633 0.000000 0.000000 0.000000 23.805046 12.014502 7.245423 52.487137 37.862109 9.746765 -3.668454 48.166179 1.738247 0.000000 0.000000 0.000000 
-0.158884 0.922280 -0.243196 -0.135506 -7.727561 7.115715 11.978179 0.395281 -18.892218 -7.198710 1.348809 10.076232 8.975701 18.192217 14.750330 0.000000 0.000000 0.000000 -10.573085 1.041244 -21.233796 7.811602 -0.895810 13.394677 -4.079289 -13.244514 10.370303 0.000000 0.000000 0.000000 5.515004 -2.415475 33.820359 -5.175113 1.672271 -24.955810 -5.261699 8.063050 23.615567 16.275990 -4.320552 -37.628943 0.000000 0.000000 0.000000 -13.629357 -27.398403 11.772231 -37.273861 -32.241826 3.579429 28.534849 -62.688084 -14.621139 0.000000 0.000000 0.000000 24.165268 11.868532 7.182337 52.635439 37.531718 9.611068 -2.913593 49.176240 2.141781 0.000000 0.000000 0.000000 
-0.159819 0.922036 -0.242693 -0.105339 -7.714937 6.900411 12.075105 0.408453 -18.707562 -7.329826 1.385923 10.225828 8.950152 18.157547 14.678189 0.000000 0.000000 0.000000 -10.624324 1.027566 -21.186971 7.971857 -0.933064 13.793737 -4.107341 -13.256510 10.211080 0.000000 0.000000 0.000000 5.472635 -2.404142 33.937082 -5.246518 1.689580 -24.973661 -5.421960 7.851046 23.615467 15.905809 -4.227852 -37.416977 0.000000 0.000000 0.000000 -13.958581 -27.554211 11.943887 -37.220658 -32.238063 3.575893 27.873745 -62.760382 -14.198157 0.000000 0.000000 0.000000 24.697935 11.706075 7.076449 52.916199 36.972037 9.394094 -1.903679 49.696021 2.621428 0.000000 0.000000 0.000000 
-0.160546 0.922077 -0.242287 -0.084159 -7.794133 6.672047 12.058303 0.410271 -18.561263 -7.268016 1.389265 10.496095 8.960892 18.165718 14.693078 0.000000 0.000000 0.000000 -10.606854 1.025100 -21.086348 8.009419 -0.940550 14.081454 -4.074850 -13.178714 10.122288 0.000000 0.000000 0.000000 5.323622 -2.351969 34.203403 -5.228040 1.687179 -25.012232 -5.571337 7.718340 23.520591 15.729056 -4.201697 -37.226292 0.000000 0.000000 0.000000 -14.156095 -27.859336 12.154734 -37.337573 -32.344671 3.648146 26.830187 -62.028949 -13.337446 0.000000 0.000000 0.000000 25.218329 11.690240 7.064522 53.225676 36.459399 9.227510 -1.074912 49.487949 2.953771 0.000000 0.000000 0.000000 
-0.161120 0.921836 -0.241761 -0.026869 -7.637050 6.502069 11.970131 0.383860 -18.421716 -7.173190 1.365940 10.569736 8.880448 18.063702 14.555442 0.000000 0.000000 0.000000 -10.679994 0.998451 -20.929554 8.103489 -0.968608 14.251063 -4.156559 -13.280105 9.970840 0.000000 0.000000 0.000000 5.260613 -2.345945 34.205714 -5.299382 1.707984 -24.910112 -5.686305 7.388144 23.474524 15.785024 -4.252763 -37.268632 0.000000 0.000000 0.000000 -14.350501 -28.010955 12.314592 -37.426169 -32.492953 3.717644 26.187571 -61.604768 -12.793937 0.000000 0.000000 0.000000 25.598933 11.683278 7.008065 53.448676 35.839715 8.982652 -0.304377 49.292782 3.244480 0.000000 0.000000 0.000000 
-0.161691 0.921762 -0.240986 0.102397 -7.565899 6.359563 11.726078 0.328810 -18.084991 -6.951875 1.299405 10.292232 8.845948 18.020426 14.469541 0.000000 0.000000 0.000000 -10.784520 0.971610 -20.706746 8.111532 -0.973381 14.239271 -4.197982 -13.311391 9.804402 0.000000 0.000000 0.000000 5.170104 -2.321249 34.245202 -5.314062 1.712986 -24.993642 -5.851434 7.288604 23.514001 15.806199 -4.317227 -37.052879 0.000000 0.000000 0.000000 -14.321393 -28.162356 12.392685 -37.489322 -32.295839 3.669028 25.617686 -62.118755 -12.570463 0.000000 0.000000 0.000000 25.725154 11.545468 6.914188 53.656823 35.414892 8.819091 0.307555 49.560231 3.545946 0.000000 0.000000 0.000000 
-0.162223 0.921412 -0.240071 0.116604 -7.576763 6.293679 11.630003 0.304610 -17.792884 -6.770965 1.246963 10.033559 8.868534 18.056136 14.302062 0.000000 0.000000 0.000000 -10.750930 0.967389 -20.478410 8.087237 -0.965685 14.084325 -4.218016 -13.293842 9.557777 0.000000 0.000000 0.000000 5.062789 -2.282419 34.233630 -5.377881 1.728303 -24.951247 -5.866936 7.225070 23.469191 15.935562 -4.417967 -36.888300 0.000000 0.000000 0.000000 -14.390422 -27.982263 12.327275 -37.426741 -32.033617 3.580057 24.960045 -63.114080 -12.404534 0.000000 0.000000 0.000000 25.878309 11.313240 6.757730 53.717546 34.896440 8.571252 1.176027 50.214074 4.010474 0.000000 0.000000 0.000000 
-0.162640 0.921266 -0.239328 0.203699 -7.484038 6.254711 11.442291 0.261412 -17.554757 -6.580542 1.187911 9.727099 8.833963 18.014678 14.200596 0.000000 0.000000 0.000000 -10.868006 0.939399 -20.185190 8.169591 -0.982283 13.756077 -4.268257 -13.342622 9.398338 0.000000 0.000000 0.000000 5.080542 -2.292988 34.128135 -5.524784 1.760054 -25.137765 -6.030543 7.195054 23.605493 16.108947 -4.574638 -36.581749 0.000000 0.000000 0.000000 -14.352836 -27.859951 12.255759 -37.063326 -31.673660 3.394401 23.525692 -64.449982 -11.835176 0.000000 0.000000 0.000000 26.303927 11.155131 6.711638 53.366385 34.597217 8.285162 1.679131 50.912472 4.336333 0.000000 0.000000 0.000000 
-0.162846 0.920822 -0.239062 0.208215 -7.592059 6.372608 11.353521 0.251467 -17.592198 -6.407786 1.150151 9.653744 8.919156 18.134433 14.104446 0.000000 0.000000 0.000000 -10.911295 0.944395 -20.212080 8.249721 -0.991009 13.568845 -4.256801 -13.295265 9.234388 0.000000 0.000000 0.000000 5.021797 -2.258757 34.032124 -5.479267 1.747243 -25.162225 -6.037307 7.377644 23.659090 16.224702 -4.606993 -36.601455 0.000000 0.000000 0.000000 -14.122838 -27.744474 12.132400 -36.890243 -31.528858 3.313723 23.059678 -65.771914 -11.860592 0.000000 0.000000 0.000000 26.187062 11.067183 6.693424 53.005618 34.796093 8.275927 1.728349 51.774608 4.484979 0.000000 0.000000 0.000000 
-0.162878 0.920126 -0.239290 0.178276 -7.746971 6.516695 11.385472 0.272299 -17.892522 -6.383022 1.162728 9.958726 9.032397 18.293094 13.989204 0.000000 0.000000 0.000000 -10.921781 0.956033 -20.241141 8.321736 -0.994578 13.265177 -4.234065 -13.221414 9.029701 0.000000 0.000000 0.000000 5.095421 -2.259182 33.813200 -5.611262 1.776144 -25.003837 -6.004717 7.485412 23.650888 16.249353 -4.593875 -36.685555 0.000000 0.000000 0.000000 -13.834891 -27.535448 11.974082 -36.808026 -31.368952 3.245115 22.571661 -67.419933 -11.914352 0.000000 0.000000 0.000000 26.005276 11.066971 6.683936 52.817264 35.070886 8.364675 1.931241 53.428548 4.803760 0.000000 0.000000 0.000000 
